<svg width="273" height="255" viewBox="0 0 273 255" fill="none" xmlns="http://www.w3.org/2000/svg">
<path d="M272.928 154.104C262.597 147.909 252.177 141.852 241.702 135.861L241.123 148.238L213.762 146.623C204.36 146.137 194.953 145.728 185.544 145.406C184.474 145.369 183.404 145.364 182.334 145.33C182.353 144.204 182.407 143.074 182.402 141.952C182.178 136.267 182.259 130.57 181.59 124.902C180.828 113.53 178.645 102.27 175.601 91.3837C169.51 69.5412 157.216 50.0154 141.186 37.0232C133.21 30.4691 124.446 25.413 115.374 21.6319C113.116 20.6381 110.825 19.7805 108.509 19.0225C106.214 18.1731 103.884 17.4989 101.549 16.8527L99.0621 16.1429L97.7991 15.8505C96.0524 8.93096 85.0599 1.48594 71.0527 0.843572C54.6052 -0.100246 41.7501 8.51502 42.8267 16.4677C43.8646 24.3728 55.7775 29.0262 69.9845 29.8614C82.0872 30.4061 92.5909 28.1095 96.6218 22.6047L97.8377 22.8852L100.226 23.5679C102.468 24.1884 104.705 24.8342 106.899 25.6487C109.117 26.3736 111.307 27.1931 113.457 28.1421C122.112 31.7491 130.404 36.5441 137.896 42.7015C152.936 54.931 164.35 73.0026 170.128 93.6509C172.998 103.95 175.097 114.653 175.823 125.595C176.471 131.021 176.386 136.543 176.606 142.025C176.611 143.083 176.559 144.136 176.542 145.193C160.717 144.753 144.883 144.514 129.033 144.806C124.893 144.899 120.753 145.023 116.611 145.171C117.416 133.864 113.835 122.107 107.421 113.858C100.59 104.895 91.4371 99.2732 81.9747 96.2223C72.4703 93.2699 62.4452 92.6449 52.7795 94.756C33.3424 98.378 15.5866 114.383 7.73983 135.935C3.64348 146.576 1.45505 157.981 0.731179 169.525C-0.051478 181.213 1.82287 193.306 6.30215 203.851C10.726 214.449 17.4945 223.381 25.2438 230.393C33.0149 237.432 41.7635 242.697 50.8615 246.517C69.0826 254.196 88.8523 256.041 107.888 252.311C126.917 248.707 145.33 238.262 158.967 221.552C165.648 213.059 170.927 203.132 174.803 192.522L177.358 184.4C178.205 181.691 178.623 178.837 179.273 176.062C180.689 170.518 181.009 164.759 181.795 159.092C181.928 156.808 182.041 154.516 182.146 152.224C183.223 152.258 184.299 152.264 185.378 152.301C194.756 152.622 204.135 153.03 213.51 153.514L240.8 155.125L240.219 167.503C251.065 162.938 261.961 158.445 272.928 154.104ZM176.028 158.387C175.272 163.742 174.988 169.228 173.645 174.419C173.03 177.023 172.647 179.722 171.849 182.252L169.463 189.842C165.842 199.726 160.954 208.918 154.772 216.791C142.142 232.244 124.967 242.098 106.924 245.509C88.9044 249.051 70.0131 247.288 52.7879 240.011C44.1871 236.401 35.9692 231.442 28.7725 224.92C21.5858 218.42 15.4471 210.263 11.4868 200.765C7.4778 191.307 5.80668 180.586 6.51376 169.995C7.18053 159.277 9.25307 148.532 12.9984 138.838C20.2069 119.171 36.0162 104.935 53.7872 101.549C62.6064 99.61 71.8236 100.2 80.4698 102.884C89.0858 105.649 97.2684 110.778 103.111 118.472C108.713 125.779 111.659 135.606 110.777 145.436C97.9956 146.02 85.2094 147.027 72.4232 149.184C67.7055 150.014 62.9893 151.021 58.2833 152.474C55.9303 153.179 53.5823 154.075 51.2428 155.13C48.6143 156.358 46.0312 157.959 43.8764 160.09C41.7602 162.199 40.0101 165.205 39.9917 168.595C40.0672 171.907 40.3494 175.322 41.4293 178.487C42.4152 181.812 43.8227 184.542 45.5291 186.932C47.1851 189.414 49.2475 191.389 51.3671 193.17C60.1073 199.992 70.868 201.483 80.6898 198.994C90.5956 196.574 99.5643 189.528 105.649 180.055C108.719 175.33 111.056 170.027 112.829 164.547C114.141 160.456 115.172 156.364 115.852 152.092C120.276 151.927 124.703 151.801 129.124 151.703C144.853 151.413 160.6 151.65 176.347 152.087C176.251 154.189 176.147 156.29 176.028 158.387ZM109.863 152.388C109.252 155.683 108.425 158.971 107.421 162.066C105.822 167.005 103.745 171.712 101.056 175.846C95.7232 184.124 88.026 190.154 79.4671 192.252C70.999 194.435 61.6608 193.002 54.5951 187.439C52.8954 185.994 51.2428 184.437 49.9815 182.516C48.6362 180.665 47.5982 178.499 47.0087 176.575C46.2882 174.549 46.0715 172.342 45.9439 170.169C45.8398 167.919 47.0826 165.966 48.5102 164.663C49.9747 163.324 51.624 162.37 53.3607 161.55C55.4147 160.628 57.546 159.806 59.7512 159.147C64.1432 157.79 68.6913 156.812 73.268 156.008C85.3303 153.969 97.5774 152.978 109.863 152.388Z" fill="#F4ECD6"/>
</svg>
